<svg xmlns="http://www.w3.org/2000/svg" xmlns:xlink="http://www.w3.org/1999/xlink" width="357" height="149" viewBox="0 0 357 149">
  <defs>
    <clipPath id="clip-StatsLeader">
      <rect width="357" height="149"/>
    </clipPath>
  </defs>
  <g id="StatsLeader" clip-path="url(#clip-StatsLeader)">
    <g id="Grupo_3561" data-name="Grupo 3561" transform="translate(-7 46.213)">
      <g id="Sustracción_89" data-name="Sustracción 89" transform="translate(214.364 -38)" fill="none">
        <path d="M149.636,94.188H42.536V23.547H0V0H149.636V94.187Z" stroke="none"/>
        <path d="M 146.6362457275391 91.18740081787109 L 146.6362457275391 3.000012874603271 L 2.999992370605469 3.000012874603271 L 2.999992370605469 20.54651260375977 L 42.53603744506836 20.54651260375977 L 45.53603744506836 20.54651260375977 L 45.53603744506836 23.54651260375977 L 45.53603744506836 91.18740081787109 L 146.6362457275391 91.18740081787109 M 149.6362457275391 94.18816375732422 L 149.6362457275391 94.18740081787109 L 42.53603744506836 94.18740081787109 L 42.53603744506836 23.54651260375977 L -7.571013156848494e-06 23.54651260375977 L -7.571013156848494e-06 1.284657355427044e-05 L 149.6362457275391 1.284657355427044e-05 L 149.6362457275391 94.18740081787109 L 149.6362457275391 94.18816375732422 Z" stroke="none" fill="#aae5f2"/>
      </g>
      <g id="Performance" transform="translate(257.39 -23.122)">
        <g id="Grupo_2078" data-name="Grupo 2078" transform="translate(0 0)">
          <g id="Grupo_1296" data-name="Grupo 1296" transform="translate(0 24.758)">
            <text id="Performance-2" data-name="Performance" transform="translate(63 11)" fill="#aae5f2" font-size="11" font-family="Lato-Regular, Lato"><tspan x="-62.634" y="0">Performance</tspan></text>
            <text id="_64.56_" data-name="64.56%" transform="translate(7.596 32.989)" fill="#aae5f2" font-size="14" font-family="Lato-Regular, Lato"><tspan x="0" y="0">64.56%</tspan></text>
          </g>
          <path id="Icon_awesome-chart-line" data-name="Icon awesome-chart-line" d="M26.49,21.59H3.418V5.355A.854.854,0,0,0,2.564,4.5H.855A.854.854,0,0,0,0,5.355V23.3a1.709,1.709,0,0,0,1.709,1.709H26.49a.854.854,0,0,0,.855-.855V22.445A.854.854,0,0,0,26.49,21.59ZM24.781,6.209H18.476A1.282,1.282,0,0,0,17.569,8.4l1.73,1.73-3.919,3.919-3.919-3.919a1.708,1.708,0,0,0-2.417,0L5.378,13.8a.855.855,0,0,0,0,1.209l1.208,1.208a.855.855,0,0,0,1.209,0l2.46-2.46,3.919,3.919a1.708,1.708,0,0,0,2.417,0l5.127-5.127,1.73,1.73a1.282,1.282,0,0,0,2.188-.906v-6.3A.853.853,0,0,0,24.781,6.209Z" transform="translate(18.896 -4.5)" fill="#aae5f2"/>
        </g>
      </g>
      <path id="Sustracción_90" data-name="Sustracción 90" d="M1.045,44.283A8.128,8.128,0,0,1,0,44.218V42.6a5.768,5.768,0,0,0,1.045.092,5.238,5.238,0,0,0,1.994-.366,4.163,4.163,0,0,0,1.519-1.054,4.792,4.792,0,0,0,.969-1.68,6.912,6.912,0,0,0,.342-2.246,6.95,6.95,0,0,0-.342-2.25,4.794,4.794,0,0,0-.969-1.686,4.223,4.223,0,0,0-1.519-1.058,5.186,5.186,0,0,0-1.994-.371A5.691,5.691,0,0,0,0,32.071V30.45a8.055,8.055,0,0,1,1.045-.066,7.129,7.129,0,0,1,2.739.513,6.16,6.16,0,0,1,2.122,1.438,6.508,6.508,0,0,1,1.367,2.2,7.9,7.9,0,0,1,.484,2.806,7.9,7.9,0,0,1-.484,2.806,6.453,6.453,0,0,1-1.367,2.2,6.136,6.136,0,0,1-2.122,1.429A7.192,7.192,0,0,1,1.045,44.283ZM12.3,44.142H10.463V30.535h3.845a8.435,8.435,0,0,1,2.231.261,4.3,4.3,0,0,1,1.552.755A3.042,3.042,0,0,1,19,32.743a4,4,0,0,1,.294,1.562,3.937,3.937,0,0,1-.228,1.348,3.577,3.577,0,0,1-.66,1.125,3.966,3.966,0,0,1-1.054.85,5.231,5.231,0,0,1-1.41.532,1.961,1.961,0,0,1,.608.579l3.968,5.4H18.885a.807.807,0,0,1-.74-.39L14.612,38.89a1.026,1.026,0,0,0-.351-.327,1.273,1.273,0,0,0-.569-.1H12.3v5.678Zm0-12.154v5.137h1.928a4.708,4.708,0,0,0,1.419-.195,2.909,2.909,0,0,0,1.025-.55,2.3,2.3,0,0,0,.622-.85,2.788,2.788,0,0,0,.209-1.092,2.178,2.178,0,0,0-.8-1.832,3.9,3.9,0,0,0-2.388-.617ZM30.887,44.141H22.5V30.535h8.384v1.5H24.354v4.52h5.288V38H24.354v4.642h6.533v1.5ZM3.484,29.1a5.92,5.92,0,0,1-2.406-.48A5.928,5.928,0,0,1,0,28.009V26.243a.438.438,0,0,1,.18-.037.76.76,0,0,1,.456.213,7.656,7.656,0,0,0,.641.47,4.912,4.912,0,0,0,.93.47,3.7,3.7,0,0,0,1.334.214,3.522,3.522,0,0,0,1.168-.18,2.5,2.5,0,0,0,.869-.508,2.228,2.228,0,0,0,.546-.783,2.635,2.635,0,0,0,.189-1.016,1.712,1.712,0,0,0-.28-1.011,2.341,2.341,0,0,0-.736-.66,5.14,5.14,0,0,0-1.04-.451l-.774-.246-.423-.134a12.206,12.206,0,0,1-1.2-.451,3.9,3.9,0,0,1-1.039-.664A3.062,3.062,0,0,1,.09,20.447C.058,20.376.027,20.3,0,20.221V17.777c.027-.081.058-.162.09-.24a3.608,3.608,0,0,1,.812-1.2,3.942,3.942,0,0,1,1.315-.835,4.835,4.835,0,0,1,1.8-.313,5.787,5.787,0,0,1,2.08.36A4.815,4.815,0,0,1,7.739,16.6l-.446.874a.725.725,0,0,1-.18.213.4.4,0,0,1-.247.072.653.653,0,0,1-.375-.162,5.938,5.938,0,0,0-.541-.355,4.4,4.4,0,0,0-.788-.356,3.4,3.4,0,0,0-1.116-.161,3.315,3.315,0,0,0-1.092.166,2.338,2.338,0,0,0-.793.451,1.86,1.86,0,0,0-.479.67,2.127,2.127,0,0,0-.162.831,1.543,1.543,0,0,0,.28.945,2.418,2.418,0,0,0,.74.641,5.708,5.708,0,0,0,1.045.461c.353.118.733.246,1.2.4.41.14.813.3,1.2.47a4.205,4.205,0,0,1,1.045.66,3.021,3.021,0,0,1,.74.978,3.258,3.258,0,0,1,.28,1.424,4.619,4.619,0,0,1-.3,1.676,3.885,3.885,0,0,1-.888,1.362,4.164,4.164,0,0,1-1.434.912A5.3,5.3,0,0,1,3.484,29.1Zm8.925-.151H10.577V15.344H12.41v5.963H13.1a1.51,1.51,0,0,0,.574-.09,1.122,1.122,0,0,0,.4-.308l4.529-5.127a1.432,1.432,0,0,1,.4-.337,1.091,1.091,0,0,1,.5-.1h1.567L15.894,21.2a4.513,4.513,0,0,1-.375.371,1.712,1.712,0,0,1-.375.247,1.339,1.339,0,0,1,.466.256,3.924,3.924,0,0,1,.418.427l5.41,6.446H19.844a1.367,1.367,0,0,1-.3-.029.9.9,0,0,1-.214-.076.7.7,0,0,1-.166-.124c-.048-.048-.1-.1-.152-.161l-4.7-5.4a2.74,2.74,0,0,0-.195-.194.894.894,0,0,0-.209-.138.976.976,0,0,0-.275-.081,2.652,2.652,0,0,0-.385-.024H12.41V28.95Zm-.645-15.04A7.1,7.1,0,0,1,9.048,13.4a6.282,6.282,0,0,1-2.127-1.424A6.5,6.5,0,0,1,5.53,9.78a7.755,7.755,0,0,1-.5-2.82,7.942,7.942,0,0,1,.489-2.839A6.1,6.1,0,0,1,9.111.5,7.9,7.9,0,0,1,11.992,0a8.921,8.921,0,0,1,1.5.119,7.025,7.025,0,0,1,1.287.342,5.984,5.984,0,0,1,1.1.541,6.667,6.667,0,0,1,.94.716l-.522.835a.484.484,0,0,1-.418.256.674.674,0,0,1-.332-.1c-.163-.091-.341-.2-.531-.323a4.575,4.575,0,0,0-.717-.365,5.8,5.8,0,0,0-1-.3A6.621,6.621,0,0,0,11.935,1.6a5.551,5.551,0,0,0-2.08.375A4.417,4.417,0,0,0,8.27,3.043a4.776,4.776,0,0,0-1.006,1.69A6.683,6.683,0,0,0,6.912,6.96a6.785,6.785,0,0,0,.366,2.3,4.891,4.891,0,0,0,1.03,1.714,4.465,4.465,0,0,0,1.576,1.073,5.321,5.321,0,0,0,2.013.371,9.048,9.048,0,0,0,1.011-.052,6.444,6.444,0,0,0,.869-.157,5.817,5.817,0,0,0,.769-.252c.241-.1.484-.211.722-.337v-3H13.16a.4.4,0,0,1-.289-.1.342.342,0,0,1-.109-.256V7.216h4.178v5.222a7.544,7.544,0,0,1-1.068.645,7.286,7.286,0,0,1-1.187.461,8.657,8.657,0,0,1-1.353.275A12.708,12.708,0,0,1,11.764,13.91Zm8.365-.01a1.213,1.213,0,0,1-.466-.09,1.113,1.113,0,0,1-.375-.252,1.23,1.23,0,0,1-.247-.375,1.2,1.2,0,0,1-.09-.47,1.214,1.214,0,0,1,.337-.846,1.172,1.172,0,0,1,.841-.351,1.165,1.165,0,0,1,.465.094,1.24,1.24,0,0,1,.38.256,1.169,1.169,0,0,1,.252.38,1.213,1.213,0,0,1,.09.466,1.2,1.2,0,0,1-.09.47,1.185,1.185,0,0,1-.252.375,1.169,1.169,0,0,1-.38.252A1.211,1.211,0,0,1,20.129,13.9ZM0,11.4H0v-4.6L2.478.589a.8.8,0,0,1,.228-.3A.6.6,0,0,1,3.1.152H4.586Z" transform="translate(153.978 8.008)" fill="#aae5f2"/>
      <g id="Grupo_3559" data-name="Grupo 3559" transform="translate(192.64 5.663)">
        <g id="Grupo_3550" data-name="Grupo 3550" transform="translate(0 0)">
          <g id="Grupo_2076" data-name="Grupo 2076">
            <g id="Grupo_2075" data-name="Grupo 2075">
              <text id="_3" data-name="3" transform="translate(13.36 36.124)" fill="#aae5f2" stroke="#aae5f2" stroke-width="1" font-size="33" font-family="Lato-Bold, Lato" font-weight="700"><tspan x="0" y="0">3</tspan></text>
              <g id="Rectángulo_470" data-name="Rectángulo 470" transform="translate(0.36 0.124)" fill="none" stroke="#aae5f2" stroke-width="3">
                <rect width="46" height="47" rx="8" stroke="none"/>
                <rect x="1.5" y="1.5" width="43" height="44" rx="6.5" fill="none"/>
              </g>
            </g>
          </g>
        </g>
      </g>
      <g id="Grupo_3560" data-name="Grupo 3560" transform="translate(14.351 13.823)">
        <g id="Grupo_3553" data-name="Grupo 3553" transform="translate(0 0)">
          <g id="Grupo_3552" data-name="Grupo 3552">
            <g id="wall" transform="translate(1.829 35.21)">
              <text id="Total_1000.90_USD" data-name="Total 1000.90 USD" transform="translate(95.739 10)" fill="#aae5f2" font-size="10" font-family="Lato-Regular, Lato"><tspan x="-32.195" y="0">1000.90 USDT</tspan></text>
              <g id="Group_11" data-name="Group 11" transform="translate(70.575 16.467)">
                <text id="_40.00600209_XMR" data-name="40.00600209 XMR" transform="translate(58 10)" fill="#aae5f2" font-size="10" font-family="Lato-Regular, Lato"><tspan x="-58.12" y="0">40.0060 ETH</tspan></text>
              </g>
              <text id="BALANCE:" transform="translate(-0.18 18.754)" fill="#aae5f2" font-size="10" font-family="Lato-Regular, Lato"><tspan x="0" y="0">BALANCE:</tspan></text>
            </g>
            <g id="Grupo_3548" data-name="Grupo 3548">
              <path id="Line" d="M0,1.676H134.345" transform="translate(0 72.817)" fill="none" stroke="#aae5f2" stroke-linecap="square" stroke-miterlimit="10" stroke-width="1"/>
              <g id="Grupo_3547" data-name="Grupo 3547" transform="translate(0 28.92)">
                <path id="Line-2" data-name="Line" d="M0,1.676H134.345" transform="translate(0 -1.676)" fill="none" stroke="#aae5f2" stroke-linecap="square" stroke-miterlimit="10" stroke-width="1"/>
              </g>
              <g id="Grupo_3546" data-name="Grupo 3546" transform="translate(1.004)">
                <g id="Grupo_3543" data-name="Grupo 3543" transform="translate(0 3.06)">
                  <g id="Componente_251_2" data-name="Componente 251 – 2" transform="translate(0 0)">
                    <g id="SPOT_CTX_TOGGLE" data-name="SPOT_CTX TOGGLE">
                      <text id="Sell" transform="translate(129.645 9.904)" fill="#aae5f2" font-size="10" font-family="Lato-Bold, Lato" font-weight="700"><tspan x="-30.69" y="0">Leader</tspan></text>
                      <text id="Buy" transform="translate(0 10.537)" fill="#aae5f2" font-size="10" font-family="Lato-Regular, Lato"><tspan x="0" y="0">Regular</tspan></text>
                    </g>
                  </g>
                </g>
                <g id="Grupo_3541" data-name="Grupo 3541" transform="translate(43.664)">
                  <rect id="Rectángulo_911" data-name="Rectángulo 911" width="43.714" height="17" rx="8.5" transform="translate(0.266 -0.036)" fill="none" stroke="#aae5f2" stroke-width="3"/>
                  <ellipse id="Elipse_224" data-name="Elipse 224" cx="6" cy="5.5" rx="6" ry="5.5" transform="translate(28.98 2.964)" fill="#aae5f2"/>
                </g>
              </g>
            </g>
          </g>
        </g>
      </g>
      <g id="Sustracción_87" data-name="Sustracción 87" transform="translate(109.543 -16.732)" fill="none">
        <path d="M149.636,94.188H44.056V24.307H0V0H149.636V94.187Z" stroke="none"/>
        <path d="M 146.6362609863281 91.18740081787109 L 146.6362609863281 3.000012874603271 L 3 3.000012874603271 L 3 21.30668640136719 L 44.05569458007813 21.30668640136719 L 47.05569458007813 21.30668640136719 L 47.05569458007813 24.30668640136719 L 47.05569458007813 91.18740081787109 L 146.6362609863281 91.18740081787109 M 149.6362609863281 94.18816375732422 L 149.6362609863281 94.18740081787109 L 44.05569458007813 94.18740081787109 L 44.05569458007813 24.30668640136719 L 5.838145966663433e-08 24.30668640136719 L 5.838145966663433e-08 1.284657355427044e-05 L 149.6362609863281 1.284657355427044e-05 L 149.6362609863281 94.18740081787109 L 149.6362609863281 94.18816375732422 Z" stroke="none" fill="#aae5f2"/>
      </g>
      <g id="Rectángulo_1406" data-name="Rectángulo 1406" transform="translate(7 4.787)" fill="none" stroke="#aae5f2" stroke-width="3">
        <rect width="150" height="94" stroke="none"/>
        <rect x="1.5" y="1.5" width="147" height="91" fill="none"/>
      </g>
    </g>
  </g>
</svg>
